<?xml version="1.0" encoding="UTF-8" standalone="no"?>
<!-- Created with Inkscape (http://www.inkscape.org/) -->

<svg
   width="45.46611mm"
   height="9.9483023mm"
   viewBox="0 0 45.46611 9.9483023"
   version="1.1"
   id="svg5"
   inkscape:version="1.1.2 (b8e25be833, 2022-02-05)"
   sodipodi:docname="logo.svg"
   xmlns:inkscape="http://www.inkscape.org/namespaces/inkscape"
   xmlns:sodipodi="http://sodipodi.sourceforge.net/DTD/sodipodi-0.dtd"
   xmlns="http://www.w3.org/2000/svg"
   xmlns:svg="http://www.w3.org/2000/svg">
  <sodipodi:namedview
     id="namedview7"
     pagecolor="#ffffff"
     bordercolor="#666666"
     borderopacity="1.0"
     inkscape:pageshadow="2"
     inkscape:pageopacity="0.0"
     inkscape:pagecheckerboard="0"
     inkscape:document-units="mm"
     showgrid="false"
     inkscape:zoom="1.9401788"
     inkscape:cx="81.95121"
     inkscape:cy="19.070407"
     inkscape:window-width="1920"
     inkscape:window-height="974"
     inkscape:window-x="-11"
     inkscape:window-y="-11"
     inkscape:window-maximized="1"
     inkscape:current-layer="layer1" />
  <defs
     id="defs2" />
  <g
     inkscape:label="Calque 1"
     inkscape:groupmode="layer"
     id="layer1"
     transform="translate(-38.910096,-74.594796)">
    <g
       aria-label="f(o)rmula"
       id="text2432"
       style="font-size:10.5833px;line-height:1.25;stroke-width:0.264583">
      <path
         d="m 41.704087,74.764129 q 0.275166,0 0.518582,0.0635 0.243415,0.0635 0.380998,0.179916 l -0.222249,0.687914 q -0.127,-0.08467 -0.275166,-0.116416 -0.148166,-0.04233 -0.328082,-0.04233 -0.455082,0 -0.709081,0.222249 -0.253999,0.211666 -0.253999,0.687915 v 0.80433 0.275166 5.016484 H 39.968426 V 76.36221 q 0,-0.349249 0.105833,-0.645581 0.105833,-0.296332 0.317499,-0.507998 0.222249,-0.211666 0.550331,-0.328083 0.328083,-0.116416 0.761998,-0.116416 z m 0.878414,2.487075 v 0.730248 h -3.672405 v -0.730248 z"
         style="fill:#ee6f6f"
         id="path51836" />
      <path
         d="m 45.641071,74.594796 0.486831,0.486832 q -0.698497,0.634998 -1.111246,1.344079 -0.412749,0.698498 -0.592665,1.481662 -0.179916,0.772581 -0.179916,1.661578 0,0.878414 0.179916,1.661578 0.179916,0.783164 0.592665,1.481662 0.412749,0.698498 1.111246,1.344079 l -0.486831,0.486832 q -1.12183,-0.973664 -1.693328,-2.222493 -0.571498,-1.259413 -0.571498,-2.751658 0,-1.492245 0.571498,-2.751658 0.571498,-1.259412 1.693328,-2.222493 z"
         style="fill:#ee6f6f"
         id="path51838" />
      <path
         d="m 48.609812,77.145371 q 0.751414,0 1.322912,0.328083 0.582082,0.328082 0.910164,0.952497 0.328082,0.613831 0.328082,1.471078 0,0.857248 -0.328082,1.481662 -0.328082,0.613832 -0.910164,0.941914 -0.571498,0.328082 -1.322912,0.328082 -0.740831,0 -1.322912,-0.328082 -0.582082,-0.328082 -0.910164,-0.941914 -0.328083,-0.624414 -0.328083,-1.481662 0,-0.857247 0.328083,-1.471078 0.328082,-0.624415 0.910164,-0.952497 0.582081,-0.328083 1.322912,-0.328083 z m 0,0.730248 q -0.539748,0 -0.920747,0.243416 -0.380999,0.243416 -0.592665,0.698498 -0.201083,0.444498 -0.201083,1.079496 0,0.624415 0.201083,1.079497 0.211666,0.455082 0.592665,0.698498 0.380999,0.243416 0.920747,0.243416 0.539748,0 0.920747,-0.243416 0.380999,-0.243416 0.582082,-0.698498 0.211666,-0.455082 0.211666,-1.079497 0,-0.634998 -0.211666,-1.079496 -0.201083,-0.455082 -0.582082,-0.698498 -0.380999,-0.243416 -0.920747,-0.243416 z"
         style="font-family:'Work Sans';-inkscape-font-specification:'Work Sans';fill:#b1b3b6"
         id="path51840" />
      <path
         d="m 51.578554,84.543098 -0.486832,-0.486832 q 0.698498,-0.645581 1.111246,-1.344079 0.412749,-0.698498 0.592665,-1.481662 0.179916,-0.783164 0.179916,-1.661578 0,-0.888997 -0.179916,-1.661578 -0.179916,-0.783164 -0.592665,-1.481662 -0.412748,-0.709081 -1.111246,-1.344079 l 0.486832,-0.486832 q 1.121829,0.963081 1.693328,2.222493 0.571498,1.259413 0.571498,2.751658 0,1.492245 -0.571498,2.751658 -0.571499,1.248829 -1.693328,2.222493 z"
         style="fill:#ee6f6f"
         id="path51842" />
      <path
         d="m 55.473212,82.542854 v -5.29165 h 0.687914 l 0.116417,0.867831 q 0.222249,-0.486832 0.645581,-0.730248 0.433915,-0.243416 1.047747,-0.243416 0.137583,0 0.296332,0.02117 0.169333,0.02117 0.285749,0.08467 l -0.148166,0.772581 q -0.116416,-0.04233 -0.253999,-0.0635 -0.137583,-0.02117 -0.391582,-0.02117 -0.328083,0 -0.666748,0.190499 -0.328083,0.1905 -0.550332,0.582082 -0.222249,0.380999 -0.222249,0.973663 v 2.857491 z"
         style="font-family:'Work Sans';-inkscape-font-specification:'Work Sans';fill:#b1b3b6"
         id="path51844" />
      <path
         d="m 59.791208,82.542854 v -5.29165 h 0.740831 l 0.05292,0.825498 q 0.285749,-0.486832 0.740831,-0.709081 0.465666,-0.22225 0.952497,-0.22225 0.560915,0 1.05833,0.254 0.497415,0.253999 0.761998,0.783164 0.169333,-0.359832 0.476248,-0.582082 0.306916,-0.232832 0.666748,-0.338665 0.370416,-0.116417 0.698498,-0.116417 0.507998,0 0.96308,0.211666 0.465665,0.211666 0.761998,0.656165 0.296332,0.444499 0.296332,1.142996 v 3.386656 h -0.846664 v -3.301989 q 0,-0.719665 -0.359832,-1.037164 -0.359832,-0.317499 -0.888997,-0.317499 -0.412749,0 -0.772581,0.201083 -0.359832,0.201083 -0.582081,0.592665 -0.211666,0.391582 -0.211666,0.96308 v 2.899824 H 63.45303 v -3.301989 q 0,-0.719665 -0.359833,-1.037164 -0.359832,-0.317499 -0.888997,-0.317499 -0.349249,0 -0.719664,0.1905 -0.359832,0.179916 -0.603248,0.582081 -0.243416,0.402166 -0.243416,1.05833 v 2.825741 z"
         style="font-family:'Work Sans';-inkscape-font-specification:'Work Sans';fill:#b1b3b6"
         id="path51846" />
      <path
         d="m 71.792662,82.648687 q -0.507999,0 -0.963081,-0.190499 -0.444498,-0.190499 -0.730247,-0.613831 -0.275166,-0.433916 -0.275166,-1.12183 v -3.471323 h 0.846664 v 3.249073 q 0,0.804331 0.349249,1.111247 0.349249,0.296332 0.984247,0.296332 0.296332,0 0.582081,-0.09525 0.285749,-0.105833 0.507998,-0.317499 0.232833,-0.22225 0.359833,-0.560915 0.137583,-0.338666 0.137583,-0.804331 v -2.878658 h 0.846664 v 5.29165 h -0.740831 l -0.05292,-0.80433 q -0.275166,0.476248 -0.751414,0.698497 -0.465665,0.211666 -1.100663,0.211666 z"
         style="font-family:'Work Sans';-inkscape-font-specification:'Work Sans';fill:#b1b3b6"
         id="path51848" />
      <path
         d="m 77.211319,74.817046 v 6.381729 q 0,0.402166 0.148166,0.560915 0.148166,0.148166 0.476248,0.148166 0.211666,0 0.349249,-0.03175 0.137583,-0.03175 0.370416,-0.116416 l -0.137583,0.740831 q -0.169333,0.07408 -0.370416,0.105833 -0.201082,0.04233 -0.412748,0.04233 -0.645582,0 -0.963081,-0.349249 -0.306915,-0.349248 -0.306915,-1.068913 v -6.413479 z"
         style="font-family:'Work Sans';-inkscape-font-specification:'Work Sans';fill:#b1b3b6"
         id="path51850" />
      <path
         d="m 82.735795,79.124449 q 0,-0.592665 -0.317499,-0.910164 -0.317499,-0.328083 -0.899581,-0.328083 -0.550331,0 -0.93133,0.243416 -0.380999,0.232833 -0.560915,0.761998 l -0.687914,-0.423332 q 0.211666,-0.592665 0.783164,-0.952497 0.571498,-0.370416 1.418162,-0.370416 0.571498,0 1.037163,0.201083 0.465665,0.1905 0.730248,0.592665 0.275166,0.391582 0.275166,1.015997 v 2.561158 q 0,0.380999 0.402165,0.380999 0.201083,0 0.391582,-0.05292 l -0.04233,0.666747 q -0.211666,0.105833 -0.550332,0.105833 -0.306915,0 -0.550331,-0.116416 -0.243416,-0.116416 -0.380999,-0.349249 -0.137583,-0.243416 -0.137583,-0.603248 v -0.105833 l 0.211666,0.03175 q -0.126999,0.412749 -0.433915,0.677331 -0.306916,0.253999 -0.687915,0.380999 -0.380998,0.116416 -0.751414,0.116416 -0.465665,0 -0.86783,-0.158749 -0.402166,-0.15875 -0.645582,-0.476249 -0.232832,-0.328082 -0.232832,-0.80433 0,-0.592665 0.391582,-0.973664 0.402165,-0.391582 1.111246,-0.529165 l 2.095494,-0.412749 v 0.698498 l -1.703912,0.349249 q -0.518581,0.105833 -0.772581,0.296332 -0.253999,0.1905 -0.253999,0.529165 0,0.328083 0.253999,0.539749 0.264583,0.201082 0.740831,0.201082 0.306916,0 0.582082,-0.07408 0.285749,-0.08467 0.507998,-0.243416 0.22225,-0.169332 0.349249,-0.412748 0.127,-0.254 0.127,-0.592665 z"
         style="font-family:'Work Sans';-inkscape-font-specification:'Work Sans';fill:#b1b3b6"
         id="path51852" />
    </g>
  </g>
</svg>
